<?xml version="1.0" standalone="no"?>
<!DOCTYPE svg PUBLIC "-//W3C//DTD SVG 20010904//EN"
 "http://www.w3.org/TR/2001/REC-SVG-20010904/DTD/svg10.dtd">
<svg version="1.0" xmlns="http://www.w3.org/2000/svg"
 width="512.000000pt" height="512.000000pt" viewBox="0 0 512.000000 512.000000"
 preserveAspectRatio="xMidYMid meet">

<g transform="translate(0.000000,512.000000) scale(0.100000,-0.100000)"
fill="#000000" stroke="none">
<path d="M1968 5091 l-33 -29 -3 -174 -3 -173 -71 -50 c-39 -27 -86 -68 -104
-90 -46 -57 -92 -158 -100 -221 l-6 -54 -334 0 c-237 0 -341 -3 -359 -12 -56
-25 -55 -18 -55 -643 l0 -575 -210 0 c-141 0 -218 -4 -235 -12 -58 -26 -55 60
-55 -1522 0 -1107 3 -1461 12 -1481 27 -59 -116 -55 2148 -55 2264 0 2121 -4
2148 55 9 20 12 374 12 1481 0 1582 3 1496 -55 1522 -17 8 -94 12 -235 12
l-210 0 0 575 c0 612 0 619 -47 641 -10 5 -209 11 -443 14 l-425 5 -7 68 c-8
79 -37 176 -79 258 -29 58 -29 61 -29 224 0 178 -8 219 -51 249 -21 14 -82 16
-581 16 l-558 0 -32 -29z m1022 -311 l0 -140 39 -78 c76 -149 76 -149 76 -588
0 -371 -1 -393 -19 -413 -19 -21 -25 -21 -434 -21 -373 0 -417 2 -434 17 -17
15 -18 39 -18 340 0 352 -2 367 -55 391 -16 7 -77 12 -160 12 -148 0 -143 -3
-124 63 14 51 57 98 161 174 49 36 93 73 98 83 6 10 10 82 10 159 l0 141 430
0 430 0 0 -140z m-990 -800 l0 -120 -301 0 -301 0 -29 -29 -29 -29 0 -366 0
-366 -120 0 -120 0 0 515 0 515 450 0 450 0 0 -120z m2020 -395 l0 -515 -120
0 -119 0 -3 371 -3 371 -28 24 c-28 24 -31 24 -233 24 l-204 0 0 120 0 120
355 0 355 0 0 -515z m-2020 18 c0 -104 63 -198 160 -242 43 -20 64 -21 490
-20 479 0 486 1 555 53 52 40 86 106 98 192 l11 74 133 0 133 0 0 -295 0 -295
-1020 0 -1020 0 0 295 0 295 230 0 230 0 0 -57z m2520 -928 l0 -195 -751 0
-751 0 -34 -34 c-36 -36 -42 -67 -22 -111 26 -57 3 -55 813 -55 l745 0 0
-1040 0 -1040 -570 0 -570 0 1 143 0 142 71 55 c230 180 427 512 492 832 23
112 21 161 -8 195 l-24 28 -1350 3 -1350 2 -30 -25 c-42 -35 -45 -61 -22 -172
27 -136 62 -239 126 -372 94 -197 215 -357 367 -486 l67 -57 0 -144 0 -144
-560 0 -560 0 0 1040 0 1040 755 0 c563 0 761 3 780 12 29 13 55 55 55 88 0
33 -26 75 -55 88 -19 9 -217 12 -780 12 l-755 0 0 195 0 195 1960 0 1960 0 0
-195z m-790 -1340 c-40 -139 -97 -265 -176 -388 -50 -76 -185 -221 -255 -273
l-47 -34 -700 0 -700 0 -49 39 c-68 55 -171 165 -227 243 -85 121 -145 252
-211 466 -4 9 239 12 1190 12 l1194 0 -19 -65z m-550 -1015 l0 -120 -630 0
-630 0 0 113 c0 63 3 117 7 120 3 4 287 7 630 7 l623 0 0 -120z"/>
<path d="M2544 2471 c-32 -14 -64 -60 -64 -93 0 -39 57 -98 94 -98 59 0 106
46 106 104 0 56 -83 109 -136 87z"/>
</g>
</svg>
