<?xml version="1.0" standalone="no"?>
<!DOCTYPE svg PUBLIC "-//W3C//DTD SVG 20010904//EN"
 "http://www.w3.org/TR/2001/REC-SVG-20010904/DTD/svg10.dtd">
<svg version="1.0" xmlns="http://www.w3.org/2000/svg"
 width="225.000000pt" height="225.000000pt" viewBox="0 0 225.000000 225.000000"
 preserveAspectRatio="xMidYMid meet">

<g transform="translate(0.000000,225.000000) scale(0.100000,-0.100000)"
fill="#000000" stroke="none">
<path d="M131 2084 c-64 -32 -106 -86 -121 -157 -8 -33 -11 -133 -8 -277 l3
-225 30 -54 c17 -30 48 -68 70 -83 l40 -29 5 -550 c4 -474 7 -551 20 -559 9
-6 380 -10 955 -10 575 0 946 4 955 10 13 8 16 85 20 559 l5 550 40 29 c22 15
54 53 70 83 l30 54 3 225 c3 144 0 244 -8 277 -15 71 -57 125 -121 157 l-53
26 -941 0 -941 0 -53 -26z m299 -347 c0 -263 -1 -274 -22 -317 -26 -50 -89
-90 -144 -90 -51 0 -115 40 -141 90 -22 41 -23 53 -23 263 0 204 1 222 21 256
34 62 58 70 192 71 l117 0 0 -273z m430 0 c0 -263 -1 -274 -22 -317 -26 -50
-89 -90 -144 -90 -51 0 -115 40 -141 90 -22 42 -23 50 -23 317 l0 273 165 0
165 0 0 -273z m430 0 c0 -267 -1 -275 -23 -317 -26 -50 -90 -90 -142 -90 -52
0 -116 40 -142 90 -22 42 -23 50 -23 317 l0 273 165 0 165 0 0 -273z m430 0
c0 -267 -1 -275 -23 -317 -26 -50 -90 -90 -141 -90 -55 0 -118 40 -143 90 -22
43 -23 54 -23 317 l0 273 165 0 165 0 0 -273z m360 256 c15 -9 38 -33 49 -53
20 -35 21 -53 21 -257 0 -210 -1 -222 -23 -263 -26 -50 -90 -90 -141 -90 -55
0 -118 40 -143 90 -22 43 -23 54 -23 317 l0 273 116 0 c90 0 122 -4 144 -17z
m-1508 -728 c44 -25 64 -30 123 -30 58 0 79 5 122 29 29 16 62 39 74 52 l22
23 17 -22 c10 -13 42 -36 72 -52 44 -25 64 -30 123 -30 59 0 79 5 123 30 30
16 62 40 73 53 l19 25 19 -25 c11 -13 43 -37 73 -53 44 -25 64 -30 123 -30 59
0 79 5 123 30 30 16 62 39 72 52 l17 22 24 -25 c33 -35 110 -73 164 -81 l45
-6 0 -493 0 -494 -75 0 -75 0 0 415 c0 402 -1 416 -20 435 -19 19 -33 20 -246
20 -136 0 -233 -4 -245 -10 -18 -10 -19 -26 -19 -435 l0 -425 -535 0 -535 0 0
494 0 493 45 6 c54 8 131 46 164 81 l24 25 17 -22 c10 -13 42 -36 72 -52z
m1178 -640 l0 -385 -60 0 -60 0 0 239 c0 237 0 240 -22 255 -29 20 -34 20 -58
-4 -19 -19 -20 -33 -20 -255 l0 -235 -60 0 -60 0 0 385 0 385 170 0 170 0 0
-385z"/>
<path d="M424 1096 c-18 -13 -19 -30 -22 -221 -3 -175 -1 -210 13 -231 l15
-24 330 0 c329 0 329 0 344 22 13 19 16 58 16 225 0 190 -1 204 -20 223 -19
19 -33 20 -338 20 -259 0 -322 -3 -338 -14z m596 -231 l0 -145 -260 0 -260 0
0 145 0 145 260 0 260 0 0 -145z"/>
<path d="M401 508 c-9 -25 -4 -49 13 -60 14 -10 538 -10 552 0 18 12 24 42 14
63 -10 18 -24 19 -291 19 l-280 0 -8 -22z"/>
<path d="M1067 523 c-11 -11 -8 -58 5 -71 28 -28 78 -7 78 33 0 12 -5 26 -12
33 -13 13 -60 16 -71 5z"/>
<path d="M1540 890 c-14 -26 -5 -57 21 -71 43 -23 92 44 57 79 -20 20 -66 15
-78 -8z"/>
</g>
</svg>
